<svg xmlns="http://www.w3.org/2000/svg" xmlns:xlink="http://www.w3.org/1999/xlink" width="836" height="393.65"><rect width="836" height="393.65" rx="5" ry="5" class="a"/><svg y="0%" x="0%"><circle cx="20" cy="20" r="6" fill="#ff5f58"/><circle cx="40" cy="20" r="6" fill="#ffbd2e"/><circle cx="60" cy="20" r="6" fill="#18c132"/></svg><svg height="325.65" viewBox="0 0 76 32.565" width="760" x="33" xmlns="http://www.w3.org/2000/svg" xmlns:xlink="http://www.w3.org/1999/xlink" y="54"><style>@keyframes o{0%{transform:translateX(-152px)}.03%{transform:translateX(-304px)}.06%{transform:translateX(-532px)}5.45%{transform:translateX(-760px)}7.15%{transform:translateX(-912px)}7.6%{transform:translateX(-988px)}8.21%{transform:translateX(-1140px)}8.8%{transform:translateX(-1292px)}9.33%{transform:translateX(-1444px)}10.04%{transform:translateX(-1520px)}13.07%{transform:translateX(-1596px)}15.6%{transform:translateX(-1672px)}16.45%{transform:translateX(-1748px)}16.93%{transform:translateX(-1824px)}17.43%{transform:translateX(-1900px)}17.97%{transform:translateX(-1976px)}18.51%{transform:translateX(-2052px)}19.24%{transform:translateX(-2128px)}20.01%{transform:translateX(-2204px)}20.44%{transform:translateX(-2280px)}21.13%{transform:translateX(-2356px)}21.91%{transform:translateX(-2432px)}22.75%{transform:translateX(-2508px)}22.88%{transform:translateX(-2584px)}23.65%{transform:translateX(-2660px)}24.05%{transform:translateX(-2736px)}25.31%{transform:translateX(-2812px)}26.56%{transform:translateX(-2888px)}26.98%{transform:translateX(-2964px)}27.73%{transform:translateX(-3040px)}28.13%{transform:translateX(-3116px)}28.73%{transform:translateX(-3268px)}32.25%{transform:translateX(-3344px)}32.89%{transform:translateX(-3420px)}33.41%{transform:translateX(-3496px)}34.05%{transform:translateX(-3572px)}34.82%{transform:translateX(-3648px)}35.31%{transform:translateX(-3724px)}36.31%{transform:translateX(-3800px)}37.08%{transform:translateX(-3876px)}37.72%{transform:translateX(-3952px)}38.68%{transform:translateX(-4028px)}62.27%{transform:translateX(-4180px)}95.74%{transform:translateX(-4256px)}96.07%{transform:translateX(-4332px)}96.14%{transform:translateX(-4484px)}to{transform:translateX(-4712px)}}.a{fill:#282c34}.f{fill:#dcdfe4}.g{fill:#e06c75}.h{fill:#56b6c2}.i{fill:#e5c07b}.j{fill:#98c379}.k{fill:#afafff}.l{fill:#9e9e9e}.m{fill:#ff5f5f}</style><g font-size="1.67" font-family="Monaco,Consolas,Menlo,'Bitstream Vera Sans Mono','Powerline Symbols',monospace"><defs><symbol id="1"><text y="1.67" class="f">fuck&apos;</text></symbol><symbol id="2"><text y="1.67" class="f">from</text><text x="5.01" y="1.67" class="f">sourcing</text><text x="14.028" y="1.67" class="f">file</text><text x="19.038" y="1.67" class="f">~/.local/share/omf/init.fish</text></symbol><symbol id="3"><text x="8.016" y="1.67" class="f">called</text><text x="15.03" y="1.67" class="f">on</text><text x="18.036" y="1.67" class="f">line</text><text x="23.046" y="1.67" class="f">7</text><text x="25.05" y="1.67" class="f">of</text><text x="28.056" y="1.67" class="f">file</text><text x="33.066" y="1.67" class="f">~/.config/fish/conf.d/omf.fish</text></symbol><symbol id="4"><text y="1.67" class="f">from</text><text x="5.01" y="1.67" class="f">sourcing</text><text x="14.028" y="1.67" class="f">file</text><text x="19.038" y="1.67" class="f">~/.config/fish/conf.d/omf.fish</text></symbol><symbol id="5"><text x="8.016" y="1.67" class="f">called</text><text x="15.03" y="1.67" class="f">on</text><text x="18.036" y="1.67" class="f">line</text><text x="23.046" y="1.67" class="f">250</text><text x="27.054" y="1.67" class="f">of</text><text x="30.06" y="1.67" class="f">file</text><text x="35.07" y="1.67" class="f">/usr/local/Cellar/fish/2.7.1/share/fish/c</text></symbol><symbol id="6"><text y="1.67" class="f">onfig.fish</text></symbol><symbol id="7"><text y="1.67" class="f">from</text><text x="5.01" y="1.67" class="f">sourcing</text><text x="14.028" y="1.67" class="f">file</text><text x="19.038" y="1.67" class="f">/usr/local/Cellar/fish/2.7.1/share/fish/config.fish</text></symbol><symbol id="8"><text x="8.016" y="1.67" class="f">called</text><text x="15.03" y="1.67" class="f">during</text><text x="22.044" y="1.67" class="f">startup</text></symbol><symbol id="9"><text y="1.67" class="f">source:</text><text x="8.016" y="1.67" class="f">Error</text><text x="14.028" y="1.67" class="f">while</text><text x="20.04" y="1.67" class="f">reading</text><text x="28.056" y="1.67" class="f">file</text><text x="33.066" y="1.67" class="f">&apos;-&apos;</text></symbol><symbol id="10"><text y="1.67" class="f">Welcome</text><text x="8.016" y="1.67" class="f">to</text><text x="11.022" y="1.67" class="f">fish,</text><text x="17.034" y="1.67" class="f">the</text><text x="21.042" y="1.67" class="f">friendly</text><text x="30.06" y="1.67" class="f">interactive</text><text x="42.084" y="1.67" class="f">shell</text></symbol><symbol id="11"><text y="1.67" class="f">⚡</text><text x="2.004" y="1.67" class="g">MBP</text><text x="6.012" y="1.67" class="h">~/Desktop</text><text x="16.032" y="1.67" class="g">❯</text><text x="17.034" y="1.67" class="i">❯</text><text x="18.036" y="1.67" class="j">❯</text><text x="20.04" y="1.67" class="k">clear</text><text x="68.136" y="1.67" class="l">00:21:33</text></symbol><symbol id="12"><text y="1.67" class="f">⚡</text><text x="2.004" y="1.67" class="g">MBP</text><text x="6.012" y="1.67" class="h">~/Desktop</text><text x="16.032" y="1.67" class="g">❯</text><text x="17.034" y="1.67" class="i">❯</text><text x="18.036" y="1.67" class="j">❯</text><text x="20.04" y="1.67" class="m">yt</text><text x="22.044" y="1.67" class="l">2mp3</text><text x="68.136" y="1.67" class="l">00:21:37</text></symbol><symbol id="13"><text y="1.67" class="f">⚡</text><text x="2.004" y="1.67" class="g">MBP</text><text x="6.012" y="1.67" class="h">~/Desktop</text><text x="16.032" y="1.67" class="g">❯</text><text x="17.034" y="1.67" class="i">❯</text><text x="18.036" y="1.67" class="j">❯</text><text x="20.04" y="1.67" class="m">yt2m</text><text x="24.048" y="1.67" class="l">p3</text><text x="68.136" y="1.67" class="l">00:21:37</text></symbol><symbol id="14"><text y="1.67" class="f">⚡</text><text x="2.004" y="1.67" class="g">MBP</text><text x="6.012" y="1.67" class="h">~/Desktop</text><text x="16.032" y="1.67" class="g">❯</text><text x="17.034" y="1.67" class="i">❯</text><text x="18.036" y="1.67" class="j">❯</text><text x="20.04" y="1.67" class="m">yt2mp</text><text x="25.05" y="1.67" class="l">3</text><text x="68.136" y="1.67" class="l">00:21:37</text></symbol><symbol id="15"><text y="1.67" class="f">⚡</text><text x="2.004" y="1.67" class="g">MBP</text><text x="6.012" y="1.67" class="h">~/Desktop</text><text x="16.032" y="1.67" class="g">❯</text><text x="17.034" y="1.67" class="i">❯</text><text x="18.036" y="1.67" class="j">❯</text><text x="20.04" y="1.67" class="k">yt2mp3</text><text x="68.136" y="1.67" class="l">00:21:37</text></symbol><symbol id="16"><text x="1.002" y="1.67" class="f">Track:</text><text x="8.016" y="1.67" class="f">like</text></symbol><symbol id="17"><text x="1.002" y="1.67" class="f">Track:</text><text x="8.016" y="1.67" class="f">like</text><text x="13.026" y="1.67" class="f">a</text></symbol><symbol id="18"><text x="1.002" y="1.67" class="f">Track:</text><text x="8.016" y="1.67" class="f">like</text><text x="13.026" y="1.67" class="f">a</text><text x="15.03" y="1.67" class="f">rolling</text></symbol><symbol id="19"><text x="1.002" y="1.67" class="f">Track:</text><text x="8.016" y="1.67" class="f">like</text><text x="13.026" y="1.67" class="f">a</text><text x="15.03" y="1.67" class="f">rolling</text><text x="23.046" y="1.67" class="f">stone</text></symbol><symbol id="20"><text x="1.002" y="1.67" class="f">Artist:</text><text x="9.018" y="1.67" class="f">bob</text></symbol><symbol id="21"><text x="1.002" y="1.67" class="f">Artist:</text><text x="9.018" y="1.67" class="f">bob</text><text x="13.026" y="1.67" class="f">dylan</text></symbol><symbol id="22"><text x="1.002" y="1.67" class="f">✔</text><text x="3.006" y="1.67" class="f">Download</text><text x="12.024" y="1.67" class="f">Complete</text></symbol><symbol id="23"><text x="1.002" y="1.67" class="f">♬</text><text x="3.006" y="1.67" class="f">Converting</text><text x="14.028" y="1.67" class="f">to</text><text x="17.034" y="1.67" class="f">MP3</text></symbol><symbol id="24"><text x="1.002" y="1.67" class="f">✔</text><text x="3.006" y="1.67" class="f">Done</text></symbol><symbol id="25"><text y="1.67" class="f">⚡</text><text x="2.004" y="1.67" class="g">MBP</text><text x="6.012" y="1.67" class="h">~/Desktop</text><text x="16.032" y="1.67" class="g">❯</text><text x="17.034" y="1.67" class="i">❯</text><text x="18.036" y="1.67" class="j">❯</text><text x="68.136" y="1.67" class="l">00:21:58</text></symbol><symbol id="a"><path fill="transparent" d="M0 0h76v16H0z"/></symbol></defs><path class="a" d="M0 0h76v32.565H0z"/><g style="animation-duration:21.894305s;animation-iteration-count:infinite;animation-name:o;animation-timing-function:steps(1,end)"><svg width="4788"><svg><use xlink:href="#a"/><use xlink:href="#1"/><use xlink:href="#2" y="4.342"/><use xlink:href="#3" y="6.513"/><use xlink:href="#4" y="10.855"/><use xlink:href="#5" y="13.026"/><use xlink:href="#6" y="15.197"/><use xlink:href="#7" y="19.539"/><use xlink:href="#8" y="21.71"/><use xlink:href="#9" y="26.052"/><use xlink:href="#10" y="28.223"/><use xlink:href="#11" y="30.394"/></svg><svg x="76"><use xlink:href="#a"/><use xlink:href="#1"/><use xlink:href="#2" y="4.342"/><use xlink:href="#3" y="6.513"/><use xlink:href="#4" y="10.855"/><use xlink:href="#5" y="13.026"/><use xlink:href="#6" y="15.197"/><use xlink:href="#7" y="19.539"/><use xlink:href="#8" y="21.71"/><use xlink:href="#9" y="26.052"/><use xlink:href="#10" y="28.223"/><use xlink:href="#11" y="30.394"/></svg><svg x="152"><use xlink:href="#a"/><use xlink:href="#1"/><use xlink:href="#2" y="4.342"/><use xlink:href="#3" y="6.513"/><use xlink:href="#4" y="10.855"/><use xlink:href="#5" y="13.026"/><use xlink:href="#6" y="15.197"/><use xlink:href="#7" y="19.539"/><use xlink:href="#8" y="21.71"/><use xlink:href="#9" y="26.052"/><use xlink:href="#10" y="28.223"/><use xlink:href="#11" y="30.394"/></svg><svg x="228"><use xlink:href="#a"/></svg><svg x="304"><use xlink:href="#a"/></svg><svg x="380"><use xlink:href="#a"/></svg><svg x="456"><use xlink:href="#a"/></svg><svg x="532"><use xlink:href="#a"/><text y="1.67" class="f">⚡</text><text x="2.004" y="1.67" class="g">MBP</text><text x="6.012" y="1.67" class="h">~/Desktop</text><text x="16.032" y="1.67" class="g">❯</text><text x="17.034" y="1.67" class="i">❯</text><text x="18.036" y="1.67" class="j">❯</text><text x="68.136" y="1.67" class="l">00:21:37</text></svg><svg x="608"><use xlink:href="#a"/><text y="1.67" class="f">⚡</text><text x="2.004" y="1.67" class="g">MBP</text><text x="6.012" y="1.67" class="h">~/Desktop</text><text x="16.032" y="1.67" class="g">❯</text><text x="17.034" y="1.67" class="i">❯</text><text x="18.036" y="1.67" class="j">❯</text><text x="20.04" y="1.67" class="f">y</text><text x="68.136" y="1.67" class="l">00:21:37</text></svg><svg x="684"><use xlink:href="#a"/><text y="1.67" class="f">⚡</text><text x="2.004" y="1.67" class="g">MBP</text><text x="6.012" y="1.67" class="h">~/Desktop</text><text x="16.032" y="1.67" class="g">❯</text><text x="17.034" y="1.67" class="i">❯</text><text x="18.036" y="1.67" class="j">❯</text><text x="20.04" y="1.67" class="f">y</text><text x="21.042" y="1.67" class="l">t2mp3</text><text x="68.136" y="1.67" class="l">00:21:37</text></svg><svg x="760"><use xlink:href="#a"/><text y="1.67" class="f">⚡</text><text x="2.004" y="1.67" class="g">MBP</text><text x="6.012" y="1.67" class="h">~/Desktop</text><text x="16.032" y="1.67" class="g">❯</text><text x="17.034" y="1.67" class="i">❯</text><text x="18.036" y="1.67" class="j">❯</text><text x="20.04" y="1.67" class="m">y</text><text x="21.042" y="1.67" class="l">t2mp3</text><text x="68.136" y="1.67" class="l">00:21:37</text></svg><svg x="836"><use xlink:href="#a"/><use xlink:href="#12"/></svg><svg x="912"><use xlink:href="#a"/><use xlink:href="#12"/></svg><svg x="988"><use xlink:href="#a"/><text y="1.67" class="f">⚡</text><text x="2.004" y="1.67" class="g">MBP</text><text x="6.012" y="1.67" class="h">~/Desktop</text><text x="16.032" y="1.67" class="g">❯</text><text x="17.034" y="1.67" class="i">❯</text><text x="18.036" y="1.67" class="j">❯</text><text x="20.04" y="1.67" class="m">yt2</text><text x="23.046" y="1.67" class="l">mp3</text><text x="68.136" y="1.67" class="l">00:21:37</text></svg><svg x="1064"><use xlink:href="#a"/><use xlink:href="#13"/></svg><svg x="1140"><use xlink:href="#a"/><use xlink:href="#13"/></svg><svg x="1216"><use xlink:href="#a"/><use xlink:href="#14"/></svg><svg x="1292"><use xlink:href="#a"/><use xlink:href="#14"/></svg><svg x="1368"><use xlink:href="#a"/><text y="1.67" class="f">⚡</text><text x="2.004" y="1.67" class="g">MBP</text><text x="6.012" y="1.67" class="h">~/Desktop</text><text x="16.032" y="1.67" class="g">❯</text><text x="17.034" y="1.67" class="i">❯</text><text x="18.036" y="1.67" class="j">❯</text><text x="20.04" y="1.67" class="m">yt2mp3</text><text x="68.136" y="1.67" class="l">00:21:37</text></svg><svg x="1444"><use xlink:href="#a"/><use xlink:href="#15"/></svg><svg x="1520"><use xlink:href="#a"/><use xlink:href="#15"/></svg><svg x="1596"><use xlink:href="#a"/><use xlink:href="#15"/><text x="1.002" y="3.841" class="f">Track:</text></svg><svg x="1672"><use xlink:href="#a"/><use xlink:href="#15"/><text x="1.002" y="3.841" class="f">Track:</text><text x="8.016" y="3.841" class="f">l</text></svg><svg x="1748"><use xlink:href="#a"/><use xlink:href="#15"/><text x="1.002" y="3.841" class="f">Track:</text><text x="8.016" y="3.841" class="f">li</text></svg><svg x="1824"><use xlink:href="#a"/><use xlink:href="#15"/><text x="1.002" y="3.841" class="f">Track:</text><text x="8.016" y="3.841" class="f">lik</text></svg><svg x="1900"><use xlink:href="#a"/><use xlink:href="#15"/><use xlink:href="#16" y="2.171"/></svg><svg x="1976"><use xlink:href="#a"/><use xlink:href="#15"/><use xlink:href="#16" y="2.171"/></svg><svg x="2052"><use xlink:href="#a"/><use xlink:href="#15"/><use xlink:href="#17" y="2.171"/></svg><svg x="2128"><use xlink:href="#a"/><use xlink:href="#15"/><use xlink:href="#17" y="2.171"/></svg><svg x="2204"><use xlink:href="#a"/><use xlink:href="#15"/><text x="1.002" y="3.841" class="f">Track:</text><text x="8.016" y="3.841" class="f">like</text><text x="13.026" y="3.841" class="f">a</text><text x="15.03" y="3.841" class="f">r</text></svg><svg x="2280"><use xlink:href="#a"/><use xlink:href="#15"/><text x="1.002" y="3.841" class="f">Track:</text><text x="8.016" y="3.841" class="f">like</text><text x="13.026" y="3.841" class="f">a</text><text x="15.03" y="3.841" class="f">ro</text></svg><svg x="2356"><use xlink:href="#a"/><use xlink:href="#15"/><text x="1.002" y="3.841" class="f">Track:</text><text x="8.016" y="3.841" class="f">like</text><text x="13.026" y="3.841" class="f">a</text><text x="15.03" y="3.841" class="f">rol</text></svg><svg x="2432"><use xlink:href="#a"/><use xlink:href="#15"/><text x="1.002" y="3.841" class="f">Track:</text><text x="8.016" y="3.841" class="f">like</text><text x="13.026" y="3.841" class="f">a</text><text x="15.03" y="3.841" class="f">roll</text></svg><svg x="2508"><use xlink:href="#a"/><use xlink:href="#15"/><text x="1.002" y="3.841" class="f">Track:</text><text x="8.016" y="3.841" class="f">like</text><text x="13.026" y="3.841" class="f">a</text><text x="15.03" y="3.841" class="f">rolli</text></svg><svg x="2584"><use xlink:href="#a"/><use xlink:href="#15"/><text x="1.002" y="3.841" class="f">Track:</text><text x="8.016" y="3.841" class="f">like</text><text x="13.026" y="3.841" class="f">a</text><text x="15.03" y="3.841" class="f">rollin</text></svg><svg x="2660"><use xlink:href="#a"/><use xlink:href="#15"/><use xlink:href="#18" y="2.171"/></svg><svg x="2736"><use xlink:href="#a"/><use xlink:href="#15"/><use xlink:href="#18" y="2.171"/></svg><svg x="2812"><use xlink:href="#a"/><use xlink:href="#15"/><text x="1.002" y="3.841" class="f">Track:</text><text x="8.016" y="3.841" class="f">like</text><text x="13.026" y="3.841" class="f">a</text><text x="15.03" y="3.841" class="f">rolling</text><text x="23.046" y="3.841" class="f">s</text></svg><svg x="2888"><use xlink:href="#a"/><use xlink:href="#15"/><text x="1.002" y="3.841" class="f">Track:</text><text x="8.016" y="3.841" class="f">like</text><text x="13.026" y="3.841" class="f">a</text><text x="15.03" y="3.841" class="f">rolling</text><text x="23.046" y="3.841" class="f">st</text></svg><svg x="2964"><use xlink:href="#a"/><use xlink:href="#15"/><text x="1.002" y="3.841" class="f">Track:</text><text x="8.016" y="3.841" class="f">like</text><text x="13.026" y="3.841" class="f">a</text><text x="15.03" y="3.841" class="f">rolling</text><text x="23.046" y="3.841" class="f">sto</text></svg><svg x="3040"><use xlink:href="#a"/><use xlink:href="#15"/><text x="1.002" y="3.841" class="f">Track:</text><text x="8.016" y="3.841" class="f">like</text><text x="13.026" y="3.841" class="f">a</text><text x="15.03" y="3.841" class="f">rolling</text><text x="23.046" y="3.841" class="f">ston</text></svg><svg x="3116"><use xlink:href="#a"/><use xlink:href="#15"/><use xlink:href="#19" y="2.171"/></svg><svg x="3192"><use xlink:href="#a"/><use xlink:href="#15"/><use xlink:href="#19" y="2.171"/></svg><svg x="3268"><use xlink:href="#a"/><use xlink:href="#15"/><use xlink:href="#19" y="2.171"/><text x="1.002" y="6.012" class="f">Artist:</text></svg><svg x="3344"><use xlink:href="#a"/><use xlink:href="#15"/><use xlink:href="#19" y="2.171"/><text x="1.002" y="6.012" class="f">Artist:</text><text x="9.018" y="6.012" class="f">b</text></svg><svg x="3420"><use xlink:href="#a"/><use xlink:href="#15"/><use xlink:href="#19" y="2.171"/><text x="1.002" y="6.012" class="f">Artist:</text><text x="9.018" y="6.012" class="f">bo</text></svg><svg x="3496"><use xlink:href="#a"/><use xlink:href="#15"/><use xlink:href="#19" y="2.171"/><use xlink:href="#20" y="4.342"/></svg><svg x="3572"><use xlink:href="#a"/><use xlink:href="#15"/><use xlink:href="#19" y="2.171"/><use xlink:href="#20" y="4.342"/></svg><svg x="3648"><use xlink:href="#a"/><use xlink:href="#15"/><use xlink:href="#19" y="2.171"/><text x="1.002" y="6.012" class="f">Artist:</text><text x="9.018" y="6.012" class="f">bob</text><text x="13.026" y="6.012" class="f">d</text></svg><svg x="3724"><use xlink:href="#a"/><use xlink:href="#15"/><use xlink:href="#19" y="2.171"/><text x="1.002" y="6.012" class="f">Artist:</text><text x="9.018" y="6.012" class="f">bob</text><text x="13.026" y="6.012" class="f">dy</text></svg><svg x="3800"><use xlink:href="#a"/><use xlink:href="#15"/><use xlink:href="#19" y="2.171"/><text x="1.002" y="6.012" class="f">Artist:</text><text x="9.018" y="6.012" class="f">bob</text><text x="13.026" y="6.012" class="f">dyl</text></svg><svg x="3876"><use xlink:href="#a"/><use xlink:href="#15"/><use xlink:href="#19" y="2.171"/><text x="1.002" y="6.012" class="f">Artist:</text><text x="9.018" y="6.012" class="f">bob</text><text x="13.026" y="6.012" class="f">dyla</text></svg><svg x="3952"><use xlink:href="#a"/><use xlink:href="#15"/><use xlink:href="#19" y="2.171"/><use xlink:href="#21" y="4.342"/></svg><svg x="4028"><use xlink:href="#a"/><use xlink:href="#15"/><use xlink:href="#19" y="2.171"/><use xlink:href="#21" y="4.342"/></svg><svg x="4104"><use xlink:href="#a"/><use xlink:href="#15"/><use xlink:href="#19" y="2.171"/><use xlink:href="#21" y="4.342"/><use xlink:href="#22" y="6.513"/></svg><svg x="4180"><use xlink:href="#a"/><use xlink:href="#15"/><use xlink:href="#19" y="2.171"/><use xlink:href="#21" y="4.342"/><use xlink:href="#22" y="6.513"/><use xlink:href="#23" y="8.684"/></svg><svg x="4256"><use xlink:href="#a"/><use xlink:href="#15"/><use xlink:href="#19" y="2.171"/><use xlink:href="#21" y="4.342"/><use xlink:href="#22" y="6.513"/><use xlink:href="#23" y="8.684"/><use xlink:href="#24" y="10.855"/></svg><svg x="4332"><use xlink:href="#a"/><use xlink:href="#15"/><use xlink:href="#19" y="2.171"/><use xlink:href="#21" y="4.342"/><use xlink:href="#22" y="6.513"/><use xlink:href="#23" y="8.684"/><use xlink:href="#24" y="10.855"/></svg><svg x="4408"><use xlink:href="#a"/><use xlink:href="#15"/><use xlink:href="#19" y="2.171"/><use xlink:href="#21" y="4.342"/><use xlink:href="#22" y="6.513"/><use xlink:href="#23" y="8.684"/><use xlink:href="#24" y="10.855"/></svg><svg x="4484"><use xlink:href="#a"/><use xlink:href="#15"/><use xlink:href="#19" y="2.171"/><use xlink:href="#21" y="4.342"/><use xlink:href="#22" y="6.513"/><use xlink:href="#23" y="8.684"/><use xlink:href="#24" y="10.855"/><use xlink:href="#25" y="13.026"/></svg><svg x="4560"><use xlink:href="#a"/><use xlink:href="#15"/><use xlink:href="#19" y="2.171"/><use xlink:href="#21" y="4.342"/><use xlink:href="#22" y="6.513"/><use xlink:href="#23" y="8.684"/><use xlink:href="#24" y="10.855"/><use xlink:href="#25" y="13.026"/></svg><svg x="4636"><use xlink:href="#a"/><use xlink:href="#15"/><use xlink:href="#19" y="2.171"/><use xlink:href="#21" y="4.342"/><use xlink:href="#22" y="6.513"/><use xlink:href="#23" y="8.684"/><use xlink:href="#24" y="10.855"/><use xlink:href="#25" y="13.026"/></svg><svg x="4712"><use xlink:href="#a"/><use xlink:href="#15"/><use xlink:href="#19" y="2.171"/><use xlink:href="#21" y="4.342"/><use xlink:href="#22" y="6.513"/><use xlink:href="#23" y="8.684"/><use xlink:href="#24" y="10.855"/><use xlink:href="#25" y="13.026"/></svg></svg></g></g></svg></svg>